<mxfile host="app.diagrams.net" modified="2024-06-25T08:37:01.727Z" agent="Mozilla/5.0 (Windows NT 10.0; Win64; x64) AppleWebKit/537.36 (KHTML, like Gecko) Chrome/126.0.0.0 Safari/537.36 Edg/126.0.0.0" etag="He0HMtZ4ZQMsVIrouUmm" version="24.6.2" type="device">
  <diagram id="C5RBs43oDa-KdzZeNtuy" name="Page-1">
    <mxGraphModel dx="1188" dy="661" grid="1" gridSize="10" guides="1" tooltips="1" connect="1" arrows="1" fold="1" page="1" pageScale="1" pageWidth="827" pageHeight="1169" math="0" shadow="0">
      <root>
        <mxCell id="WIyWlLk6GJQsqaUBKTNV-0" />
        <mxCell id="WIyWlLk6GJQsqaUBKTNV-1" parent="WIyWlLk6GJQsqaUBKTNV-0" />
        <mxCell id="8NtrZWujo0_rGH1xT23k-4" style="edgeStyle=orthogonalEdgeStyle;rounded=0;orthogonalLoop=1;jettySize=auto;html=1;" edge="1" parent="WIyWlLk6GJQsqaUBKTNV-1" source="WIyWlLk6GJQsqaUBKTNV-3" target="8NtrZWujo0_rGH1xT23k-5">
          <mxGeometry relative="1" as="geometry">
            <mxPoint x="220" y="190" as="targetPoint" />
          </mxGeometry>
        </mxCell>
        <mxCell id="WIyWlLk6GJQsqaUBKTNV-3" value="Start" style="rounded=1;whiteSpace=wrap;html=1;fontSize=12;glass=0;strokeWidth=1;shadow=0;" parent="WIyWlLk6GJQsqaUBKTNV-1" vertex="1">
          <mxGeometry x="160" y="80" width="120" height="40" as="geometry" />
        </mxCell>
        <mxCell id="8NtrZWujo0_rGH1xT23k-6" style="edgeStyle=orthogonalEdgeStyle;rounded=0;orthogonalLoop=1;jettySize=auto;html=1;fontColor=#40A74A;strokeColor=#40A74A;" edge="1" parent="WIyWlLk6GJQsqaUBKTNV-1" source="8NtrZWujo0_rGH1xT23k-5" target="8NtrZWujo0_rGH1xT23k-7">
          <mxGeometry relative="1" as="geometry">
            <mxPoint x="420" y="190" as="targetPoint" />
          </mxGeometry>
        </mxCell>
        <mxCell id="8NtrZWujo0_rGH1xT23k-8" value="Send serial&lt;div&gt;LoadDataCode&lt;/div&gt;" style="edgeLabel;html=1;align=center;verticalAlign=middle;resizable=0;points=[];fontColor=#40A74A;" vertex="1" connectable="0" parent="8NtrZWujo0_rGH1xT23k-6">
          <mxGeometry x="-0.0083" y="-2" relative="1" as="geometry">
            <mxPoint as="offset" />
          </mxGeometry>
        </mxCell>
        <mxCell id="8NtrZWujo0_rGH1xT23k-5" value="Load data from GoogleSheet" style="rounded=1;whiteSpace=wrap;html=1;" vertex="1" parent="WIyWlLk6GJQsqaUBKTNV-1">
          <mxGeometry x="160" y="160" width="120" height="60" as="geometry" />
        </mxCell>
        <mxCell id="8NtrZWujo0_rGH1xT23k-9" style="edgeStyle=orthogonalEdgeStyle;rounded=0;orthogonalLoop=1;jettySize=auto;html=1;strokeColor=#40A74A;" edge="1" parent="WIyWlLk6GJQsqaUBKTNV-1" source="8NtrZWujo0_rGH1xT23k-7" target="8NtrZWujo0_rGH1xT23k-10">
          <mxGeometry relative="1" as="geometry">
            <mxPoint x="459" y="270.0000000000001" as="targetPoint" />
          </mxGeometry>
        </mxCell>
        <mxCell id="8NtrZWujo0_rGH1xT23k-14" value="Have Data" style="edgeLabel;html=1;align=center;verticalAlign=middle;resizable=0;points=[];fontColor=#40A74A;" vertex="1" connectable="0" parent="8NtrZWujo0_rGH1xT23k-9">
          <mxGeometry x="-0.1033" relative="1" as="geometry">
            <mxPoint as="offset" />
          </mxGeometry>
        </mxCell>
        <mxCell id="8NtrZWujo0_rGH1xT23k-7" value="ESP8266" style="rounded=1;whiteSpace=wrap;html=1;" vertex="1" parent="WIyWlLk6GJQsqaUBKTNV-1">
          <mxGeometry x="414" y="170" width="90" height="40" as="geometry" />
        </mxCell>
        <mxCell id="8NtrZWujo0_rGH1xT23k-12" style="edgeStyle=orthogonalEdgeStyle;rounded=0;orthogonalLoop=1;jettySize=auto;html=1;" edge="1" parent="WIyWlLk6GJQsqaUBKTNV-1" source="8NtrZWujo0_rGH1xT23k-10" target="8NtrZWujo0_rGH1xT23k-15">
          <mxGeometry relative="1" as="geometry">
            <mxPoint x="280" y="360" as="targetPoint" />
          </mxGeometry>
        </mxCell>
        <mxCell id="8NtrZWujo0_rGH1xT23k-19" value="Don&#39;t have data" style="edgeLabel;html=1;align=center;verticalAlign=middle;resizable=0;points=[];" vertex="1" connectable="0" parent="8NtrZWujo0_rGH1xT23k-12">
          <mxGeometry x="-0.0733" y="2" relative="1" as="geometry">
            <mxPoint as="offset" />
          </mxGeometry>
        </mxCell>
        <mxCell id="8NtrZWujo0_rGH1xT23k-10" value="Check Google&amp;nbsp;&lt;span style=&quot;background-color: initial;&quot;&gt;Sheet&lt;/span&gt;" style="rhombus;whiteSpace=wrap;html=1;" vertex="1" parent="WIyWlLk6GJQsqaUBKTNV-1">
          <mxGeometry x="590" y="300" width="101" height="100" as="geometry" />
        </mxCell>
        <mxCell id="8NtrZWujo0_rGH1xT23k-15" value="" style="rounded=1;whiteSpace=wrap;html=1;" vertex="1" parent="WIyWlLk6GJQsqaUBKTNV-1">
          <mxGeometry x="340" y="320" width="120" height="60" as="geometry" />
        </mxCell>
      </root>
    </mxGraphModel>
  </diagram>
</mxfile>
